<?xml version="1.0" encoding="UTF-8"?>
<svg width="96px" height="120px" viewBox="0 0 96 120" version="1.1" xmlns="http://www.w3.org/2000/svg" xmlns:xlink="http://www.w3.org/1999/xlink">
    <title>F586093D-3E98-4ADE-976A-606724DFB927</title>
    <g id="Design" stroke="none" stroke-width="1" fill="none" fill-rule="evenodd">
        <g id="Styleguide" transform="translate(-116.000000, -12057.000000)" fill-rule="nonzero">
            <g id="iconfinder_creditcard-scissors-bankrupt-debt-free_1667926-copy" transform="translate(116.000000, 12057.000000)">
                <path d="M17.1788717,57.1347115 L57.560224,97.2181699 C56.6180978,98.7485993 56.0691872,100.485345 55.9617539,102.275707 C55.2770538,109.768382 60.0339288,116.69311 67.310892,118.796994 C72.9707185,120.526888 79.1302481,119.008958 83.3177782,114.852319 C87.5053083,110.69568 89.0345197,104.58159 87.2917689,98.9635159 C85.1722501,91.740235 78.1960585,87.0184516 70.6476984,87.6981006 C68.8474784,87.7926996 67.0980597,88.3238684 65.5525748,89.2451119 L17.6983745,41.7835998 C17.4129474,41.5058124 16.988183,41.4236465 16.6185595,41.5747216 C16.2489361,41.7257968 16.0056147,42.0810275 16,42.4777716 L16,54.3778581 C16.0149439,55.4144122 16.4380946,56.4039723 17.1788717,57.1347115 Z M63.9541046,103.564883 C63.9541046,99.1833918 67.532402,95.6314917 71.9464554,95.6314917 C76.3605089,95.6314917 79.9388062,99.1833918 79.9388062,103.564883 C79.9388062,107.946374 76.3605089,111.498274 71.9464554,111.498274 C67.532402,111.498274 63.9541046,107.946374 63.9541046,103.564883 Z" id="Shape" fill="#CDD7DE"></path>
                <polygon id="Path" fill="#B3BEC6" points="48 71.5 16 39.5 16 55.5 40 79.5"></polygon>
                <polygon id="Path" fill="#8D97A2" points="20 43.5 20 59.5 32 71.5 48 71.5"></polygon>
                <path d="M88,67.5 L8,67.5 C3.581722,67.5 0,63.9709504 0,59.6176471 L0,8.38235294 C0,4.02904962 3.581722,0.5 8,0.5 L88,0.5 C92.418278,0.5 96,4.02904962 96,8.38235294 L96,59.6176471 C96,63.9709504 92.418278,67.5 88,67.5 Z" id="Path" fill="#54B6C7"></path>
                <path d="M74,67.5 L82.8199988,58.553308 C83.5760776,57.7909193 84.0008435,56.7539164 84,55.6725138 L84,43.5001438 C83.9943787,43.0943218 83.7508245,42.7309632 83.3808472,42.5764313 C83.01087,42.4218995 82.5856991,42.5059454 82.2999988,42.7900888 L58,67.5 L74,67.5 Z" id="Path" fill="#54B6C7"></path>
                <polygon id="Path" fill="#8D97A2" points="56.1330869 79.5 48 87.6127542 50.8669131 90.5 59 82.3669131"></polygon>
                <rect id="Rectangle" fill="#FFFFFF" x="66" y="26.5" width="16" height="4"></rect>
                <rect id="Rectangle" fill="#FFFFFF" x="66" y="34.5" width="6" height="4"></rect>
                <rect id="Rectangle" fill="#FFFFFF" x="76" y="34.5" width="6" height="4"></rect>
                <rect id="Rectangle" fill="#FFFFFF" x="46" y="26.5" width="16" height="4"></rect>
                <rect id="Rectangle" fill="#FFFFFF" x="46" y="34.5" width="6" height="4"></rect>
                <rect id="Rectangle" fill="#FFFFFF" x="56" y="34.5" width="6" height="4"></rect>
                <path d="M78.3016218,41.7860004 L30.447424,89.2857121 C28.9056207,88.3505649 27.1559684,87.8057205 25.3523007,87.6990829 C17.803941,87.0194549 10.8277498,91.7410925 8.70823105,98.9641502 C6.96548035,104.582051 8.49469171,110.695952 12.6822216,114.852463 C16.8697515,119.008973 23.0292807,120.526856 28.6891069,118.797015 C35.9660698,116.693197 40.7229445,109.768683 40.0382445,102.276239 C39.9429424,100.489354 39.4078261,98.7528946 38.4797361,97.2188581 L78.8211246,57.1366379 C79.5764804,56.391326 80.0008402,55.3775512 80,54.3203711 L80,42.4206521 C79.9720714,42.034614 79.7204277,41.6999783 79.3555106,41.5636154 C78.9905936,41.4272525 78.5790956,41.5140843 78.3016218,41.7860004 Z M24.0535437,111.498521 C19.6394905,111.498521 16.0611934,107.94673 16.0611934,103.565375 C16.0611934,99.1840194 19.6394905,95.6322289 24.0535437,95.6322289 C28.467597,95.6322289 32.0458941,99.1840194 32.0458941,103.565375 C32.0458941,107.94673 28.467597,111.498521 24.0535437,111.498521 Z" id="Shape" fill="#CDD7DE"></path>
                <circle id="Oval" fill="#B3BEC6" cx="48" cy="79.5" r="3"></circle>
            </g>
        </g>
    </g>
</svg>