<?xml version="1.0" encoding="UTF-8"?>
<svg width="92px" height="94px" viewBox="0 0 92 94" version="1.1" xmlns="http://www.w3.org/2000/svg" xmlns:xlink="http://www.w3.org/1999/xlink">
    <title>5A063900-A71C-4A78-AF93-E3D2DA0FDE4E</title>
    <g id="Design" stroke="none" stroke-width="1" fill="none" fill-rule="evenodd">
        <g id="Styleguide" transform="translate(-1217.000000, -12070.000000)">
            <g id="Group-53-Copy" transform="translate(1219.000000, 12072.000000)">
                <path d="M83,37.8 L74,37.8 C73.4,34.2 71.6,31.2 69.8,28.2 L76.4,21.6 C77.6,20.4 77.6,19.2 76.4,18.6 L69.8,12 C68.6,10.8 67.4,10.8 66.8,12 L60.2,18.6 C57.2,16.8 54.2,15.6 50.6,14.4 L50.6,5.4 C50.6,4.2 49.4,3 48.2,3 L38.6,3 C37.4,3 36.2,4.2 36.2,5.4 L36.2,14.4 C32.6,15 29.6,16.8 26.6,18.6 L20.6,12 C19.4,10.8 18.2,10.8 17.6,12 L11,18.6 C9.8,19.8 9.8,21 11,21.6 L17.6,28.2 C15.8,31.2 14.6,34.2 13.4,37.8 L4.4,37.8 C3.2,37.8 2,39 2,40.2 L2,49.8 C2,51 3.2,52.2 4.4,52.2 L13.4,52.2 C14,55.8 15.8,58.8 17.6,61.8 L11,68.4 C9.8,69.6 9.8,70.8 11,71.4 L17.6,78 C18.8,79.2 20,79.2 20.6,78 L27.2,71.4 C30.2,73.2 33.2,74.4 36.8,75.6 L36.8,84.6 C36.8,85.8 38,87 39.2,87 L48.8,87 C50,87 51.2,85.8 51.2,84.6 L51.2,75.6 C54.8,75 57.8,73.2 60.8,71.4 L67.4,78 C68.6,79.2 69.8,79.2 70.4,78 L77,71.4 C78.2,70.2 78.2,69 77,68.4 L70.4,61.8 C72.2,58.8 73.4,55.8 74.6,52.2 L83.6,52.2 C84.8,52.2 86,51 86,49.8 L86,40.2 C85.4,39 84.2,37.8 83,37.8 Z M43,54 C38.2,54 34,49.8 34,45 C34,40.2 38.2,36 43,36 C47.8,36 52,40.2 52,45 C52,49.8 47.8,54 43,54 Z" id="Shape" fill="#54B6C7"></path>
                <line x1="58.4285714" y1="9.61538462" x2="63.5714286" y2="0.384615385" id="Line-2" stroke="#C0C0C0" stroke-width="3" fill="#C0C0C0" stroke-linecap="round"></line>
                <line x1="25.4285714" y1="89.6153846" x2="30.5714286" y2="80.3846154" id="Line-2-Copy" stroke="#C0C0C0" stroke-width="3" fill="#C0C0C0" stroke-linecap="round"></line>
                <line x1="10" y1="31" x2="8.32667268e-16" y2="27" id="Line-2-Copy-2" stroke="#C0C0C0" stroke-width="3" fill="#C0C0C0" stroke-linecap="round"></line>
                <line x1="88" y1="62" x2="78" y2="58" id="Line-2-Copy-3" stroke="#C0C0C0" stroke-width="3" fill="#C0C0C0" stroke-linecap="round"></line>
            </g>
        </g>
    </g>
</svg>