<?xml version="1.0" encoding="UTF-8"?>
<svg width="91px" height="117px" viewBox="0 0 91 117" version="1.1" xmlns="http://www.w3.org/2000/svg" xmlns:xlink="http://www.w3.org/1999/xlink">
    <title>B7F78BFA-A50B-49BA-A480-91D7275257E8</title>
    <g id="Design" stroke="none" stroke-width="1" fill="none" fill-rule="evenodd">
        <g id="Styleguide" transform="translate(-701.000000, -12056.000000)">
            <g id="iconfinder_big_data-04_3132434-copy" transform="translate(706.000000, 12061.000000)">
                <path d="M33.6,105.28 L33.6,80.64 L47.04,80.64 L47.04,105.28 C47.04,108.864 44.128,112 40.32,112 L40.32,112 C36.512,112 33.6,109.088 33.6,105.28 Z" id="Path" fill="#3C91A0" fill-rule="nonzero"></path>
                <circle id="Oval" fill="#54B6C7" fill-rule="nonzero" cx="40.32" cy="40.32" r="40.32"></circle>
                <circle id="Oval" stroke="#3C91A0" stroke-width="11.2" cx="40.32" cy="40.32" r="39.2"></circle>
                <path d="M66.08,41.888 L55.104,52.864 C46.816,61.152 33.6,61.152 25.312,52.864 L14.336,41.888 C13.44,40.992 13.44,39.648 14.336,38.752 L25.312,27.776 C33.6,19.488 46.816,19.488 55.104,27.776 L66.08,38.752 C66.976,39.648 66.976,40.992 66.08,41.888 Z" id="Path" fill="#FFFFFF" fill-rule="nonzero"></path>
                <path d="M43.008,38.08 C41.44,36.064 41.664,33.376 43.008,31.36 C43.456,30.912 43.008,30.016 42.336,30.016 C38.528,29.12 34.272,30.464 31.584,34.048 C28.672,37.856 28.896,43.232 31.808,47.04 C35.84,52.192 43.232,52.416 47.712,47.936 C49.504,46.144 50.624,43.68 50.848,41.216 C50.848,40.544 50.176,40.096 49.728,40.32 C47.264,40.992 44.576,40.096 43.008,38.08 Z" id="Path" fill="#3C91A0" fill-rule="nonzero"></path>
            </g>
        </g>
    </g>
</svg>