<?xml version="1.0" encoding="UTF-8"?>
<svg width="617px" height="488px" viewBox="0 0 617 488" version="1.1" xmlns="http://www.w3.org/2000/svg" xmlns:xlink="http://www.w3.org/1999/xlink">
    <title>C5A127DE-276F-4589-97FF-60CCDD48D532</title>
    <g id="Design" stroke="none" stroke-width="1" fill="none" fill-rule="evenodd">
        <g id="Styleguide" transform="translate(-1073.000000, -9662.000000)">
            <g id="Group-66" transform="translate(279.000000, 9497.000000)">
                <g id="Group-18" transform="translate(794.000000, 165.500000)">
                    <g id="Group-55">
                        <path d="M169.058308,87.7115304 C167.493566,88.3695122 166.040426,89.027494 164.698888,89.6878008 C163.148097,90.385308 161.792608,91.159541 160.630096,92.0128248 C150.167488,95.035356 138.233139,97.4371058 124.824726,99.2203992 C117.92638,100.150409 105.915306,101.389647 88.786854,102.940438 C87.721993,102.863712 85.8038482,102.670735 83.0324196,102.359182 C94.6645147,99.8946562 107.238244,97.4929064 120.755934,95.1516072 C136.34057,92.4615544 152.441361,89.9807538 169.058308,87.7115304 Z" id="Path" fill="#EFF7F5" transform="translate(126.045364, 95.325984) scale(-1, 1) translate(-126.045364, -95.325984) "></path>
                        <path d="M175.917128,85.8515112 C180.178897,88.253261 184.363941,92.0128248 188.472258,97.1278776 C189.63477,98.522892 190.604305,100.26666 191.378538,102.359182 C189.441793,102.359182 187.465523,102.010428 185.449727,101.312921 C184.519717,101.003693 183.512982,100.575888 182.427196,100.034158 C181.341409,99.492427 178.551381,97.9021106 174.057109,95.2678584 C172.322641,94.2773982 170.71605,93.4427146 169.232684,92.7684576 C169.653514,92.129076 170.060393,91.4896944 170.453322,90.8503128 C171.571659,88.9949436 172.559794,87.2116502 173.417728,85.5027576 C174.319837,85.637609 175.154521,85.7538602 175.917128,85.8515112 Z" id="Path" fill="#DC6B3D" transform="translate(180.305611, 93.930970) scale(-1, 1) translate(-180.305611, -93.930970) "></path>
                        <path d="M396.271278,439.138908 C396.580506,436.737158 397.394265,433.675102 398.712553,429.955063 C400.805075,423.910001 401.928061,420.850269 402.083838,420.771218 C404.332136,413.254416 403.827606,407.207028 400.572572,402.636031 L399.991316,401.706022 C401.386331,400.155231 402.781345,398.374262 404.17636,396.358466 C406.424658,399.227546 407.780147,402.364003 408.245152,405.774814 C408.321877,406.084042 408.361403,406.472321 408.361403,406.937326 C408.361403,407.093102 407.431393,414.105375 405.571374,427.978793 L405.571374,428.095044 L404.17636,429.955063 C401.309605,433.830878 398.673028,436.89061 396.271278,439.138908 Z" id="Path" fill="#EFF7F5" transform="translate(402.316340, 417.748687) scale(-1, 1) translate(-402.316340, -417.748687) "></path>
                        <path d="M320.475496,389.150892 C321.714733,385.740082 325.202269,381.129559 330.938104,375.316999 C335.511426,370.511175 338.454906,366.288931 339.773195,362.645618 L345.934508,360.320594 C345.934508,361.32733 345.62528,363.2664 345.004499,366.133154 C343.841987,370.5507 342.291196,374.656692 340.354451,378.455782 C339.347715,380.469252 338.222404,382.292071 336.983166,383.919588 C336.441435,383.996314 336.092682,384.07304 335.936905,384.15209 C335.239398,384.384593 332.874849,385.277402 328.845582,386.825868 C325.434772,388.141832 322.644743,388.91839 320.475496,389.150892 Z" id="Path" fill="#EFF7F5" transform="translate(333.205002, 374.735743) scale(-1, 1) translate(-333.205002, -374.735743) "></path>
                        <path d="M82.5093791,139.327063 C92.2047292,138.008775 101.311848,135.702351 109.828411,132.410117 C109.69821,134.023683 109.542433,135.690726 109.363406,137.408918 C101.746628,143.34703 97.9475385,149.566469 97.9707887,156.067236 C97.9707887,157.3832 98.1265653,158.703813 98.4357935,160.019777 C99.4192787,164.053693 101.916354,167.969034 105.933996,171.761148 C112.09531,177.638809 121.84181,183.258392 135.171173,188.617572 C140.172299,190.619418 145.673306,192.577088 151.678843,194.488258 C173.389917,201.47263 201.676159,207.961772 236.542219,213.960334 C249.606529,216.227232 263.054468,218.338354 276.881386,220.296024 L276.881386,225.527328 C257.00708,222.946551 237.865158,220.058872 219.453293,216.866614 C191.027549,211.956163 166.770574,206.745784 146.680042,201.230827 C140.193225,199.449859 134.148162,197.629365 128.544854,195.767021 C117.145262,192.049307 107.533612,188.194418 99.7145567,184.200026 C84.822778,176.608823 76.3759658,168.547965 74.3717951,160.019777 C74.0625669,158.703813 73.9067004,157.3832 73.9067004,156.067236 C73.8881901,150.275601 76.7549447,144.693219 82.5093791,139.327063 Z" id="Path" fill="#FFFFFF" transform="translate(175.394043, 178.968722) scale(-1, 1) translate(-175.394043, -178.968722) "></path>
                        <path d="M244.85409,101.312921 C243.184723,102.108079 241.633932,103.251991 240.204042,104.742331 C238.085945,106.930179 236.225926,109.873659 234.623984,113.577422 C232.998793,117.339311 231.640979,121.891708 230.555192,127.236938 C228.771899,136.537034 227.067656,148.548108 225.44014,163.27481 C224.51013,166.220616 220.13211,171.9146 212.303754,180.363737 C209.174272,183.602495 206.54002,186.352999 204.398672,188.617572 C191.06931,183.258392 181.322809,177.638809 175.161496,171.761148 C175.356798,170.710237 175.491649,169.624451 175.568375,168.506114 C175.724151,163.546838 176.57511,154.55597 178.125901,141.535836 C178.290978,140.117571 178.444429,138.741157 178.590906,137.408918 C178.769933,135.690726 178.925709,134.023683 179.055911,132.410117 C189.711496,128.32505 199.439396,122.686866 208.234962,115.495567 C216.384171,108.787873 223.184866,101.212945 228.637048,92.7684576 C230.120413,93.4427146 231.727004,94.2773982 233.461472,95.2678584 C237.955744,97.9021106 240.745773,99.492427 241.831559,100.034158 C242.917345,100.575888 243.92408,101.003693 244.85409,101.312921 Z" id="Path" fill="#FB9773" transform="translate(210.007793, 140.693015) scale(-1, 1) translate(-210.007793, -140.693015) "></path>
                        <path d="M199.79769,71.494488 C199.135058,73.9055379 197.742368,75.8632081 195.612646,77.3651736 C195.173217,77.6837019 194.729137,77.9743299 194.275758,78.2370576 C194.877939,76.2817124 195.247618,74.4798188 195.380144,72.8313768 C196.000925,67.4838216 193.675901,64.1892626 188.405072,62.9500248 C184.445556,61.8712137 181.013821,61.9293393 178.116841,63.1244016 C178.932924,61.3015828 180.190762,59.771717 181.895005,58.5324792 C182.241433,58.2883517 182.590187,58.0558493 182.941266,57.834972 C185.287215,56.5004082 187.805216,56.0354034 190.497594,56.4399576 C191.234626,56.5631839 191.932133,56.7375607 192.590115,56.963088 C194.870964,57.734996 196.730983,59.1114102 198.170173,61.0900056 C200.030192,63.647532 200.688174,66.5142866 200.146443,69.6925944 C200.072042,70.3180259 199.955791,70.917882 199.79769,71.494488 Z" id="Path" fill="#30B4B0" transform="translate(189.223361, 67.267927) scale(-1, 1) translate(-189.223361, -67.267927) "></path>
                        <path d="M235.263366,184.200026 C243.082422,188.194418 252.694071,192.049307 264.093664,195.767021 C263.993688,195.887922 263.916962,195.983248 263.861161,196.057649 C261.691914,199.545185 260.217849,204.195233 259.443616,210.007793 L259.211113,209.891542 C259.055337,209.891542 258.939085,209.891542 258.86236,209.891542 C258.629857,209.73809 258.43688,209.619514 258.281104,209.542788 C255.491075,208.147774 252.429018,206.752759 249.097259,205.357745 C245.998002,204.195233 241.42468,202.298013 235.379617,199.661436 C230.264564,197.336412 225.886544,195.088114 222.243232,192.918866 C227.493136,191.070472 231.833956,188.164192 235.263366,184.200026 L235.263366,184.200026 Z" id="Path" fill="#FB9773" transform="translate(243.168448, 197.103910) scale(-1, 1) translate(-243.168448, -197.103910) "></path>
                        <path d="M1.5403284,0.6393816 C1.31480107,1.08346118 1.06369848,1.47174019 0.7846956,1.8018936 C0.9009468,1.41593962 1.03579819,1.02998563 1.1915748,0.6393816 L1.1915748,0.5231304 C1.31945112,0.564980832 1.43570232,0.60450624 1.5403284,0.6393816 Z" id="Path" fill="#1D8583" transform="translate(1.162512, 1.162512) scale(-1, 1) translate(-1.162512, -1.162512) "></path>
                        <path d="M98.0625617,194.488258 C92.0570247,192.577088 86.5560179,190.619418 81.5548913,188.617572 C83.6962384,186.352999 86.3304906,183.602495 89.4599729,180.363737 C97.2883287,171.9146 101.666349,166.220616 102.596358,163.27481 C104.223875,148.548108 105.928118,136.537034 107.711411,127.236938 C108.797198,121.891708 110.155012,117.339311 111.780203,113.577422 C113.382145,109.873659 115.242164,106.930179 117.360261,104.742331 C118.790151,103.251991 120.340942,102.108079 122.010309,101.312921 C124.026105,102.010428 126.002375,102.359182 127.93912,102.359182 C127.994921,102.366157 128.053046,102.366157 128.113497,102.359182 C130.884926,102.670735 132.80307,102.863712 133.867931,102.940438 C150.996383,101.389647 163.007457,100.150409 169.905803,99.2203992 C183.314217,97.4371058 195.248565,95.035356 205.711173,92.0128248 C207.694418,91.8872735 209.398661,92.4476043 210.826226,93.6984672 C212.028263,94.744728 213.034998,96.2769188 213.848757,98.2903896 C215.476274,102.010428 215.980804,105.846718 215.360022,109.799258 C205.90415,111.89178 198.387347,113.907576 192.80729,115.844321 C186.141446,118.092619 176.027591,120.726871 162.465726,123.749402 C150.375602,126.92771 140.882529,131.229005 133.984182,136.653286 C133.054173,138.745807 132.472917,141.303334 132.240414,144.325865 C132.240414,145.565103 132.356666,148.241205 132.589168,152.347198 C132.977447,159.398995 131.931186,164.553574 129.450386,167.808607 C128.055371,170.366134 125.769873,172.302879 122.591565,173.621167 C120.808271,174.474451 117.941517,175.285884 113.988976,176.062442 C112.052231,178.466517 109.145951,181.795952 105.270136,186.060046 C102.26388,189.596407 99.8621303,192.405036 98.0625617,194.488258 Z" id="Path" fill="#FF8452" transform="translate(148.585902, 143.241925) scale(-1, 1) translate(-148.585902, -143.241925) "></path>
                        <path d="M208.758092,195.767021 C214.3614,197.629365 220.406463,199.449859 226.89328,201.230827 C222.752412,207.664169 220.311137,213.999859 219.569454,220.237898 C215.693639,216.750362 210.541386,213.341877 204.108044,210.007793 C204.882277,204.195233 206.356343,199.545185 208.52559,196.057649 C208.581391,195.983248 208.658116,195.887922 208.758092,195.767021 Z" id="Path" fill="#FF8452" transform="translate(215.500662, 208.002460) scale(-1, 1) translate(-215.500662, -208.002460) "></path>
                        <path d="M186.920904,57.834972 C186.572151,56.3632318 186.223397,54.8124408 185.874643,53.184924 C185.718867,50.7831742 186.572151,46.402829 188.43217,40.0485384 C190.368915,33.8476994 191.84298,30.127661 192.849715,28.8884232 L194.012227,28.8884232 L194.24473,28.4234184 C194.400506,28.3466926 194.516758,29.160451 194.593483,30.8646936 C194.670209,32.259708 194.24473,34.391755 193.31472,37.2585096 C192.384711,40.204315 191.959231,42.334037 192.035957,43.6523256 C192.166158,46.9259594 193.677424,51.3644302 196.569754,56.963088 C195.911772,56.7375607 195.214265,56.5631839 194.477232,56.4399576 C191.784854,56.0354034 189.266853,56.5004082 186.920904,57.834972 Z" id="Path" fill="#15283C" transform="translate(191.213180, 43.126716) scale(-1, 1) translate(-191.213180, -43.126716) "></path>
                        <path d="M176.905264,18.4258152 L177.021515,18.5420664 C180.044046,21.022867 182.408595,24.0453982 184.112838,27.60966 C184.112838,27.6863858 184.152363,27.7654366 184.229089,27.8421624 C184.617368,28.772172 185.003322,29.741707 185.391601,30.7484424 C184.461592,33.3059688 184.112838,36.6377282 184.34534,40.7460456 C184.810345,46.0936008 185.042848,49.3881598 185.042848,50.6273976 C183.957061,56.9049624 181.478586,62.4454946 177.602771,67.2513192 C173.65023,72.366372 168.651428,75.6981314 162.606366,77.2489224 C161.985585,77.5581506 158.770076,79.3019186 152.957516,82.4802264 C149.625757,84.2635198 146.603226,85.3865064 143.889923,85.8515112 C143.889923,85.6190088 143.889923,85.4632322 143.889923,85.3865064 C143.580695,84.5332226 143.385393,83.4497614 143.308667,82.1314728 C142.808787,82.0361468 142.304256,81.8431698 141.797401,81.5502168 C142.274031,80.3946799 142.68091,79.2902935 143.018039,78.2370576 C143.471418,77.9743299 143.915498,77.6837019 144.354928,77.3651736 C146.48465,75.8632081 147.877339,73.9055379 148.539971,71.494488 C149.030551,72.9732033 149.302579,74.2310412 149.353729,75.272652 C149.353729,75.5818802 149.393255,75.853908 149.46998,76.0864104 C155.903322,73.528884 159.158355,72.2501208 159.235081,72.2501208 C169.930192,66.5933374 174.812742,55.2007198 173.882732,38.072268 C173.573504,32.7247128 173.533979,29.0441998 173.766481,27.028404 C174.15476,23.6966446 175.045244,20.7113138 176.440259,18.0770616 C176.56581,18.1398372 176.721587,18.2560884 176.905264,18.4258152 Z" id="Path" fill="#15283C" transform="translate(163.594501, 51.964286) scale(-1, 1) translate(-163.594501, -51.964286) "></path>
                        <path d="M310.598903,70.622604 C312.458922,72.7151256 314.279416,74.7681218 316.062709,76.7839176 C317.922728,78.567211 319.743222,80.1947278 321.526515,81.666468 C323.230758,83.0614824 325.053577,84.3402456 326.990322,85.5027576 C329.082843,86.7419954 330.942863,87.7882562 332.570379,88.64154 C334.197896,89.5715496 336.134641,90.3085822 338.382939,90.8503128 C340.784689,91.3153176 342.295955,91.7035966 342.916736,92.0128248 C344.079248,92.1686014 345.358011,92.4011038 346.753026,92.710332 C347.60631,92.8661086 348.420068,92.9428344 349.194301,92.9428344 C351.98433,93.2520626 354.581382,93.5636158 356.983131,93.872844 C346.597249,95.9653656 334.934929,95.0748814 321.99152,91.1990664 C320.829008,90.2690568 319.473519,88.9135678 317.922728,87.1302744 C316.450988,85.1935294 314.860672,82.7894546 313.156429,79.9227 C311.373136,76.9001688 310.522177,73.8009118 310.598903,70.622604 Z" id="Path" fill="#15283C" transform="translate(333.788637, 82.798123) scale(-1, 1) translate(-333.788637, -82.798123) "></path>
                        <path d="M237.704641,124.098156 C229.411281,123.091421 221.894478,121.308127 215.151908,118.750601 C216.702699,113.014767 218.755696,108.9855 221.313222,106.660476 C225.03326,102.940438 231.931607,100.924642 242.005936,100.615414 C255.584076,102.528908 268.873913,103.575169 281.880097,103.754196 C285.186281,103.816972 288.478515,103.816972 291.761449,103.754196 C303.079666,103.540294 314.374633,100.806066 325.648674,95.5584864 C329.787217,93.6496417 333.914134,91.4013435 338.029427,88.8159168 C338.85016,88.3020865 339.663919,87.7789561 340.470702,87.2465256 C340.124273,87.8952073 339.735994,88.5345889 339.30819,89.1646704 C335.94388,94.3680741 330.326622,99.0762477 322.451766,103.289191 C321.85656,103.603069 321.254379,103.912298 320.649872,104.219201 C312.405337,108.225217 303.084316,110.589767 292.691459,111.310524 C281.608069,112.008031 270.022475,112.82179 257.93235,113.751799 C256.788438,113.949426 255.702652,114.142403 254.677316,114.333055 C246.721084,115.953597 241.954785,117.929867 240.378419,120.261866 C238.595125,123.051895 237.704641,124.330658 237.704641,124.098156 Z" id="Path" fill="#15283C" transform="translate(277.811305, 105.685754) scale(-1, 1) translate(-277.811305, -105.685754) "></path>
                        <path d="M434.41935,402.636031 C437.674384,407.207028 438.178914,413.254416 435.930616,420.771218 C435.774839,420.850269 434.651852,423.910001 432.559331,429.955063 C431.241042,433.675102 430.427284,436.737158 430.118056,439.138908 C429.808827,442.858946 428.218511,447.276492 425.351756,452.391545 C421.32249,459.443343 419.074192,463.58886 418.609187,464.830423 C417.214172,468.317959 414.696171,470.759234 411.052859,472.154249 C407.023592,473.393487 403.729033,472.465802 401.171507,469.36422 C405.821555,470.140778 408.999863,469.208443 410.704105,466.574191 C414.733372,462.07992 417.446675,455.181574 418.841689,445.881478 C419.539196,440.843151 420.120452,437.125437 420.585457,434.721362 C421.282964,430.380543 422.212974,426.776755 423.375486,423.910001 C425.235505,418.250892 426.281766,414.298352 426.514268,412.052378 C426.514268,411.74315 426.514268,411.510648 426.514268,411.354871 C426.514268,409.26235 426.125989,407.518582 425.351756,406.123567 C425.351756,406.044516 425.312231,405.891065 425.235505,405.658562 C425.158779,405.42606 425.003003,405.193558 424.7705,404.961055 C424.614724,404.728553 424.461272,404.49605 424.305496,404.263548 C423.607988,403.566041 422.79423,402.984785 421.86422,402.51978 C421.86422,402.443054 421.787495,402.403529 421.631718,402.403529 L421.515467,402.287278 C423.219709,401.822273 425.391282,401.706022 428.025534,401.938524 C430.892289,402.091976 433.024336,402.326803 434.41935,402.636031 Z" id="Path" fill="#15283C" transform="translate(419.239729, 437.253944) scale(-1, 1) translate(-419.239729, -437.253944) "></path>
                        <path d="M326.75306,405.42606 L326.636809,403.44979 C328.966483,403.814818 331.233382,403.777618 333.437504,403.333538 C334.374489,403.142886 335.304499,402.873184 336.227533,402.51978 C340.412576,400.989914 344.346517,397.888332 348.02703,393.219684 C351.358789,389.034641 355.506632,381.478313 360.465908,370.5507 C361.08669,369.232411 362.0539,367.567694 363.372188,365.551898 C365.232208,362.450316 366.238943,360.8228 366.39472,360.669348 C368.719744,356.561031 369.493977,352.843317 368.719744,349.509233 C370.735539,350.595019 372.74901,352.222536 374.764806,354.391783 C375.927318,355.710072 377.59436,357.646817 379.763608,360.204343 L380.228612,362.645618 C378.910324,366.288931 375.966843,370.511175 371.393521,375.316999 C365.657687,381.129559 362.170151,385.740082 360.930913,389.150892 C359.459173,390.39013 357.017898,392.910456 353.607088,396.70722 C350.196277,400.194756 347.5225,402.715082 345.585755,404.263548 C344.981249,404.740178 344.379067,405.186583 343.783861,405.600437 C342.921277,406.179368 342.067993,406.683898 341.226335,407.111702 C335.971781,409.711079 331.145031,409.146098 326.75306,405.42606 Z" id="Path" fill="#15283C" transform="translate(353.432711, 379.111517) scale(-1, 1) translate(-353.432711, -379.111517) "></path>
                        <path d="M379.938311,349.509233 C380.712544,352.843317 379.938311,356.561031 377.613287,360.669348 C377.457511,360.8228 376.450775,362.450316 374.590756,365.551898 C373.272468,367.567694 372.305258,369.232411 371.684476,370.5507 C366.7252,381.478313 362.577357,389.034641 359.245598,393.219684 C355.565085,397.888332 351.631144,400.989914 347.446101,402.51978 C346.523066,402.873184 345.593057,403.142886 344.656072,403.333538 C342.451949,403.777618 340.185051,403.814818 337.855377,403.44979 L337.971628,401.706022 C338.048354,401.394468 338.087879,401.04804 338.087879,400.659761 C338.941163,396.009713 341.187136,391.206213 344.830449,386.244612 C350.487232,379.734545 354.556024,374.772944 357.036825,371.364458 C358.199337,370.122896 359.710603,367.839722 361.570622,364.505638 C363.895646,360.553097 365.483637,358.035096 366.336921,356.94931 C370.056959,351.522704 374.318728,349.004703 379.124553,349.392982 L379.589558,349.509233 C379.745334,349.509233 379.861586,349.509233 379.938311,349.509233 Z" id="Path" fill="#1A4D79" transform="translate(359.041995, 376.525943) scale(-1, 1) translate(-359.041995, -376.525943) "></path>
                        <path d="M317.165324,57.834972 C316.814245,58.0558493 316.465492,58.2883517 316.119063,58.5324792 C314.414821,59.771717 313.156983,61.3015828 312.340899,63.1244016 C315.237879,61.9293393 318.669615,61.8712137 322.62913,62.9500248 C327.89996,64.1892626 330.224984,67.4838216 329.604202,72.8313768 C329.471676,74.4798188 329.101997,76.2817124 328.499816,78.2370576 C328.162688,79.2902935 327.755808,80.3946799 327.279178,81.5502168 C327.786034,81.8431698 328.290564,82.0361468 328.790444,82.1314728 C328.86717,83.4497614 329.062472,84.5332226 329.3717,85.3865064 C329.3717,85.4632322 329.3717,85.6190088 329.3717,85.8515112 C328.906695,85.8515112 328.44169,85.8515112 327.976686,85.8515112 C327.214078,85.7538602 326.379394,85.637609 325.477285,85.5027576 C324.619351,87.2116502 323.631216,88.9949436 322.512879,90.8503128 C322.11995,91.4896944 321.713071,92.129076 321.292242,92.7684576 C315.84006,101.212945 309.039365,108.787873 300.890156,115.495567 C292.09459,122.686866 282.36669,128.32505 271.711105,132.410117 C263.194542,135.702351 254.087423,138.008775 244.392073,139.327063 C233.338909,140.801128 221.518487,140.994105 208.935457,139.908319 C208.286775,139.854844 207.628793,139.796718 206.959186,139.733942 C206.389556,139.678142 205.8083,139.622341 205.215418,139.559566 C199.014579,138.862058 195.141089,136.57656 193.590298,132.700745 C192.990442,131.294105 192.73934,129.936291 192.834666,128.631953 C192.971842,127.046286 193.611224,125.535021 194.75281,124.098156 C194.75281,124.330658 195.643295,123.051895 197.426588,120.261866 C199.002954,117.929867 203.769253,115.953597 211.725486,114.333055 C212.750821,114.142403 213.836607,113.949426 214.980519,113.751799 C227.070644,112.82179 238.656239,112.008031 249.739628,111.310524 C260.132485,110.589767 269.453507,108.225217 277.698042,104.219201 C278.302548,103.912298 278.904729,103.603069 279.499935,103.289191 C287.374791,99.0762477 292.992049,94.3680741 296.356359,89.1646704 C296.784164,88.5345889 297.172443,87.8952073 297.518871,87.2465256 C296.712088,87.7789561 295.898329,88.3020865 295.077596,88.8159168 C290.962304,91.4013435 286.835386,93.6496417 282.696843,95.5584864 C271.422802,100.806066 260.127835,103.540294 248.809618,103.754196 C245.526685,103.816972 242.234451,103.816972 238.928266,103.754196 C225.922082,103.575169 212.632245,102.528908 199.054105,100.615414 C188.979776,100.924642 182.08143,102.940438 178.361391,106.660476 C175.803865,108.9855 173.750869,113.014767 172.200078,118.750601 C167.705806,117.123084 163.481238,115.107288 159.528697,112.705538 C152.862853,108.676272 149.803121,104.295927 150.344852,99.5691528 C150.500629,97.8649102 151.663141,95.9653656 153.832388,93.872844 C157.087422,90.8503128 161.581693,89.997029 167.317527,91.3153176 L167.085025,91.1990664 C180.028433,95.0748814 191.690754,95.9653656 202.076636,93.872844 C199.674886,93.5636158 197.077834,93.2520626 194.287806,92.9428344 C193.513573,92.9428344 192.699814,92.8661086 191.84653,92.710332 C190.451516,92.4011038 189.172753,92.1686014 188.010241,92.0128248 C187.389459,91.7035966 185.878194,91.3153176 183.476444,90.8503128 C181.228146,90.3085822 179.291401,89.5715496 177.663884,88.64154 C176.036367,87.7882562 174.176348,86.7419954 172.083826,85.5027576 C170.147081,84.3402456 168.324263,83.0614824 166.62002,81.666468 C164.836727,80.1947278 163.016233,78.567211 161.156214,76.7839176 C159.37292,74.7681218 157.552426,72.7151256 155.692407,70.622604 C156.778193,65.4308254 159.37292,63.0267506 163.481238,63.4150296 C166.892048,63.7242578 170.147081,64.9658206 173.246338,67.135068 C176.966377,70.234325 180.065634,72.5988744 182.546434,74.2263912 C192.544038,81.2014632 206.37793,85.6190088 224.048113,87.479028 C253.343415,90.5015592 272.950343,89.4552984 282.87122,84.3402456 C293.101326,79.148467 299.418416,75.1959262 301.820166,72.4826232 C304.010338,69.7623451 306.646915,67.1466931 309.725247,64.6356672 C309.639221,64.2497132 309.52297,63.8800344 309.376494,63.5312808 C307.05147,54.8519662 306.081935,47.6443918 306.470214,41.9085576 C306.858493,33.8476994 309.608996,27.3376322 314.724049,22.378356 C318.288311,18.2700386 322.938359,15.210307 328.674193,13.1945112 C334.098474,11.4112178 339.678531,10.7927614 345.414366,11.334492 C351.382702,12.108725 356.534955,14.047795 360.875775,17.147052 C361.375655,17.5051057 361.880186,17.9305851 362.387041,18.4258152 C362.203364,18.2560884 362.047587,18.1398372 361.922036,18.0770616 C360.527022,20.7113138 359.636537,23.6966446 359.248258,27.028404 C359.015756,29.0441998 359.055281,32.7247128 359.36451,38.072268 C360.294519,55.2007198 355.411969,66.5933374 344.716858,72.2501208 C344.640133,72.2501208 341.385099,73.528884 334.951758,76.0864104 C334.875032,75.853908 334.835506,75.5818802 334.835506,75.272652 C334.784356,74.2310412 334.512328,72.9732033 334.021748,71.494488 C334.17985,70.917882 334.296101,70.3180259 334.370502,69.6925944 C334.912232,66.5142866 334.25425,63.647532 332.394231,61.0900056 C330.955041,59.1114102 329.095022,57.734996 326.814174,56.963088 C323.921844,51.3644302 322.410578,46.9259594 322.280377,43.6523256 C322.203651,42.334037 322.62913,40.204315 323.55914,37.2585096 C324.48915,34.391755 324.914629,32.259708 324.837903,30.8646936 C324.761177,29.160451 324.644926,28.3466926 324.48915,28.4234184 L324.256647,28.8884232 L323.094135,28.8884232 C322.0874,30.127661 320.613335,33.8476994 318.67659,40.0485384 C316.81657,46.402829 315.963287,50.7831742 316.119063,53.184924 C316.467817,54.8124408 316.81657,56.3632318 317.165324,57.834972 Z" id="Path" fill="#1A4D79" transform="translate(256.335390, 75.872213) scale(-1, 1) translate(-256.335390, -75.872213) "></path>
                        <path d="M436.661509,402.287278 L436.77776,402.403529 C436.933536,402.403529 437.010262,402.443054 437.010262,402.51978 C437.940272,402.984785 438.75403,403.566041 439.451537,404.263548 C439.607314,404.49605 439.760766,404.728553 439.916542,404.961055 C440.149045,405.193558 440.304821,405.42606 440.381547,405.658562 C440.458273,405.891065 440.497798,406.044516 440.497798,406.123567 C441.272031,407.518582 441.66031,409.26235 441.66031,411.354871 C441.66031,411.510648 441.66031,411.74315 441.66031,412.052378 C441.427808,414.298352 440.381547,418.250892 438.521528,423.910001 C437.359016,426.776755 436.429006,430.380543 435.731499,434.721362 C435.266494,437.125437 434.685238,440.843151 433.987731,445.881478 C432.592717,455.181574 429.879414,462.07992 425.850147,466.574191 C424.145904,469.208443 420.967597,470.140778 416.317549,469.36422 C416.317549,469.287494 416.278023,469.247969 416.201297,469.247969 C416.124572,469.094517 416.00832,468.936416 415.852544,468.782964 C411.744226,463.123856 410.893268,456.111583 413.295017,447.741497 C414.225027,444.565514 415.696767,440.843151 417.712563,436.581382 C419.960861,431.854608 421.588378,428.367072 422.595113,426.118774 C423.448397,424.644708 424.338881,422.435936 425.268891,419.492455 C426.663905,415.307412 427.438138,413.019588 427.593915,412.633634 C429.144706,408.527642 431.313953,405.502786 434.103982,403.566041 C434.878215,403.02431 435.731499,402.596506 436.661509,402.287278 Z" id="Path" fill="#1A4D79" transform="translate(426.812750, 435.958122) scale(-1, 1) translate(-426.812750, -435.958122) "></path>
                        <path d="M91.4606316,94.3378488 C85.0272902,98.522892 80.1447398,101.505898 76.8129804,103.289191 C71.3886994,106.388448 66.1573954,108.560021 61.1190684,109.799258 C61.7398498,105.846718 61.2353196,102.010428 59.6078028,98.2903896 C58.7940444,96.2769188 57.787309,94.744728 56.5852716,93.6984672 C55.1577069,92.4476043 53.4534643,91.8872735 51.4702188,92.0128248 C52.6327308,91.159541 53.9882198,90.385308 55.5390108,89.6878008 C57.8082342,90.8851882 59.8821556,91.9686493 61.75845,92.9428344 C69.4356792,96.8023742 73.9880762,98.6995938 75.417966,98.6391432 C78.5962738,98.4833666 83.943829,97.0511518 91.4606316,94.3378488 Z" id="Path" fill="#E3926C" transform="translate(71.465425, 99.743530) scale(-1, 1) translate(-71.465425, -99.743530) "></path>
                        <path d="M142.146155,85.9677624 C142.843662,81.7059934 143.385393,78.7997134 143.773672,77.2489224 C149.818734,75.6981314 154.817536,72.366372 158.770076,67.2513192 C162.645891,62.4454946 165.124367,56.9049624 166.210153,50.6273976 C165.900925,60.0042194 164.157157,67.7930498 160.978849,73.9938888 C156.71708,82.440701 150.439515,86.4327672 142.146155,85.9677624 Z" id="Path" fill="#FB9773" transform="translate(154.178154, 68.315773) scale(-1, 1) translate(-154.178154, -68.315773) "></path>
                        <path d="M325.868575,208.845281 C325.247793,210.240295 324.550286,211.984063 323.776053,214.076585 C322.148536,218.261628 319.979289,220.974931 317.265986,222.214169 C316.877707,219.889145 317.421763,216.866614 318.893503,213.146575 C320.753522,208.575578 321.723057,205.473996 321.799783,203.846479 C319.551485,204.92994 317.498488,208.224499 315.638469,213.727831 C313.855176,218.996336 311.685928,222.060717 309.128402,222.911676 C309.051676,220.35415 309.593407,217.175842 310.755919,213.379078 C312.925166,207.722294 314.050478,204.623037 314.127204,204.078982 C312.887966,205.627448 311.725454,207.83622 310.639668,210.7053 C309.477156,214.192836 308.507621,216.441134 307.733388,217.44787 C306.182597,217.603646 305.524615,216.55506 305.757117,214.309087 C306.298848,211.519058 306.49415,209.73809 306.338373,208.961532 C305.175861,203.460525 306.647601,197.489864 310.755919,191.058847 C316.259251,184.162826 319.863038,178.889672 321.56728,175.248684 C326.373105,163.23761 329.976892,154.283943 332.378642,148.394657 C335.466274,140.842979 338.46788,134.253861 341.38811,128.631953 C341.292784,129.936291 341.543887,131.294105 342.143743,132.700745 C343.694534,136.57656 347.568024,138.862058 353.768863,139.559566 C354.361744,139.622341 354.943,139.678142 355.512631,139.733942 C354.192017,143.274954 352.252947,147.090318 349.700071,151.184686 C348.353882,153.52831 347.151845,155.583631 346.096284,157.345999 C345.866106,157.690103 345.635929,158.036531 345.398776,158.39226 C345.089548,158.933991 344.777995,159.478046 344.468767,160.019777 C339.662942,167.536579 336.407909,174.318674 334.703666,180.363737 C335.324447,187.262083 335.361648,192.997917 334.819917,197.568914 C333.889908,203.92553 331.641609,208.998732 328.077348,212.797822 C326.217328,212.721096 325.596547,211.558584 326.217328,209.310286 C327.303115,206.443531 328.000622,204.623037 328.30985,203.846479 C328.077348,204.155707 327.612343,205.046192 326.914836,206.520257 L327.031087,206.171503 C327.340315,205.473996 327.572817,204.816014 327.728594,204.195233 C328.502827,201.716757 328.851581,199.856738 328.774855,198.615175 C328.698129,197.60844 327.689069,195.629844 325.752324,192.686364 C324.280583,190.205563 323.776053,187.571311 324.241058,184.781282 L323.078546,184.54878 C322.846044,185.090511 322.49729,185.748492 322.032285,186.52505 C321.723057,187.145832 321.606806,187.996791 321.683532,189.082577 C321.683532,189.933536 322.457765,191.447126 324.008556,193.616374 C325.480296,195.864672 326.217328,197.180635 326.217328,197.568914 C326.373105,199.352208 325.287319,202.955995 322.962295,208.380276 C323.350574,208.922007 324.201533,209.273085 325.519821,209.426537 C325.675598,209.194034 325.791849,208.998732 325.868575,208.845281 Z" id="Path" fill="#E3926C" transform="translate(330.612112, 175.771814) scale(-1, 1) translate(-330.612112, -175.771814) "></path>
                        <path d="M184.694094,77.2489224 C184.305815,78.7997134 183.764084,81.7059934 183.066577,85.9677624 C182.601572,86.6652696 181.594837,88.4857634 180.044046,91.4315688 C178.572306,93.6008162 177.602771,95.5003608 177.137766,97.1278776 C173.029449,92.0128248 168.844405,88.253261 164.582636,85.8515112 C165.047641,85.8515112 165.512646,85.8515112 165.977651,85.8515112 C168.690954,85.3865064 171.713485,84.2635198 175.045244,82.4802264 C180.857804,79.3019186 184.073313,77.5581506 184.694094,77.2489224 Z" id="Path" fill="#C07553" transform="translate(174.638365, 87.188400) scale(-1, 1) translate(-174.638365, -87.188400) "></path>
                        <path d="M336.646915,208.845281 C336.570189,208.998732 336.453938,209.194034 336.298161,209.426537 C334.979872,209.273085 334.128914,208.922007 333.740635,208.380276 C336.065659,202.955995 337.151445,199.352208 336.995668,197.568914 C336.995668,197.180635 336.258636,195.864672 334.786895,193.616374 C333.236104,191.447126 332.461871,189.933536 332.461871,189.082577 C332.385146,187.996791 332.501397,187.145832 332.810625,186.52505 C333.27563,185.748492 333.624383,185.090511 333.856886,184.54878 L335.019398,184.781282 C334.554393,187.571311 335.058923,190.205563 336.530663,192.686364 C338.467408,195.629844 339.476469,197.60844 339.553195,198.615175 C339.62992,199.856738 339.281167,201.716757 338.506934,204.195233 C338.351157,204.816014 338.118655,205.473996 337.809427,206.171503 L337.693175,206.520257 C337.383947,207.141038 337.035194,207.915271 336.646915,208.845281 Z" id="Path" fill="#C07553" transform="translate(336.001282, 196.987658) scale(-1, 1) translate(-336.001282, -196.987658) "></path>
                        <path d="M10.2010428,89.6878008 C11.5425816,89.027494 12.9957216,88.3695122 14.5604628,87.7115304 C18.7524811,86.030538 23.7698829,84.4030212 29.6149932,82.82898 C36.6737661,80.8341094 42.4468007,78.953165 46.936422,77.1907968 C49.5962495,76.1654612 51.8050223,75.177326 53.5627404,74.2263912 C54.9577548,69.5763432 58.173263,65.3145742 63.21159,61.4387592 C63.6463695,61.1690564 64.0718489,60.8970286 64.4903532,60.6250008 C70.1982871,57.0770142 74.4623811,54.3660362 77.2779852,52.4874168 C79.4472326,51.1691282 81.1538002,50.2019182 82.393038,49.5811368 C84.4088338,48.6511272 86.073551,48.727853 87.3918396,49.8136392 C86.6943324,51.5178818 84.911039,53.2244494 82.0442844,54.928692 C80.0284886,56.091204 78.517223,57.1374648 77.5104876,58.0674744 C76.8129804,58.223251 75.999222,58.416228 75.0692124,58.6487304 C72.123407,59.57874 70.3424386,60.3924984 69.7216572,61.0900056 C69.8774338,61.3992338 69.798383,61.7875128 69.4891548,62.2525176 C69.412429,62.6407966 69.9146342,62.7942482 71.0004204,62.7175224 C73.867175,62.5617458 76.192199,62.0595406 77.9754924,61.2062568 L78.0917436,61.2062568 C77.9615423,61.0132798 77.8662163,60.8761034 77.8011156,60.7993776 C79.0636036,62.1571916 80.0517388,63.7079826 80.7655212,65.4494256 C81.3770025,66.8955905 81.8024819,68.4649817 82.0442844,70.1575992 C82.6650658,74.884373 80.8050466,77.8697038 76.4642268,79.1089416 C75.3528653,79.3623692 74.2298787,79.6529972 73.092942,79.9808256 C70.8585939,80.6527575 68.5916955,81.4851161 66.2922468,82.4802264 C64.3950272,83.3032849 62.4745574,84.2332945 60.5378124,85.2702552 C57.2781288,87.0488986 52.744332,89.8947279 46.936422,93.8147184 C46.6690442,93.9774701 46.3970164,94.1518469 46.1226636,94.3378488 C38.605861,97.0511518 33.2583058,98.4833666 30.079998,98.6391432 C28.6501082,98.6995938 24.0977112,96.8023742 16.420482,92.9428344 C14.5441876,91.9686493 12.4702662,90.8851882 10.2010428,89.6878008 Z" id="Path" fill="#EFA37F" transform="translate(48.796441, 73.788780) scale(-1, 1) translate(-48.796441, -73.788780) "></path>
                        <path d="M27.8207246,60.7993776 C27.8858253,60.8761034 27.9811513,61.0132798 28.1113526,61.2062568 L27.9951014,61.2062568 C26.211808,62.0595406 23.886784,62.5617458 21.0200294,62.7175224 C19.9342432,62.7942482 19.432038,62.6407966 19.5087638,62.2525176 C19.817992,61.7875128 19.8970428,61.3992338 19.7412662,61.0900056 C20.3620476,60.3924984 22.143016,59.57874 25.0888214,58.6487304 C26.018831,58.416228 26.8325894,58.223251 27.5300966,58.0674744 C26.988366,58.5324792 26.6768128,58.9579586 26.600087,59.3462376 C26.6768128,59.5020142 26.7163382,59.6182654 26.7163382,59.6949912 C26.793064,59.6949912 26.8721148,59.7345166 26.9488406,59.8112424 L27.762599,60.741252 L27.8207246,60.7993776 Z" id="Path" fill="#E8A99C" transform="translate(23.806246, 60.402078) scale(-1, 1) translate(-23.806246, -60.402078) "></path>
                        <path d="M303.735323,157.345999 C304.790884,155.583631 305.992921,153.52831 307.33911,151.184686 C309.891986,147.090318 311.831056,143.274954 313.15167,139.733942 C313.821277,139.796718 314.479259,139.854844 315.12794,139.908319 C313.751526,142.251943 312.047284,144.965246 310.012888,148.045903 C308.580673,150.12215 306.488151,153.221407 303.735323,157.345999 Z" id="Path" fill="#E8A99C" transform="translate(309.431632, 148.539971) scale(-1, 1) translate(-309.431632, -148.539971) "></path>
                    </g>
                    <g id="Group-17" transform="translate(210.685353, 192.160904)">
                        <path d="M52.9054618,17.7686337 C53.0612384,17.8453595 53.2542154,17.9639357 53.4867178,18.1173873 C53.5634436,18.1173873 53.6796948,18.1173873 53.8354714,18.1173873 L54.0679738,18.2336385 C60.5013152,21.5677229 65.6535684,24.9762081 69.5293834,28.4637441 C70.847672,29.8587585 71.0011236,31.8722293 69.9943882,34.5088065 C68.4435972,38.5380731 67.6298388,40.5910693 67.553113,40.6701201 C66.6231034,43.9251537 64.9560612,48.6519275 62.5543114,54.8527665 C62.4775856,55.2410455 62.3613344,55.6665249 62.2055578,56.1315297 C61.5847764,58.0705997 61.0430458,60.0073447 60.578041,61.9440897 C60.0363104,64.6573927 59.803808,67.1753937 59.8805338,69.5004177 L59.8805338,69.6166689 C60.0363104,71.5557389 60.1525616,73.5692097 60.2292874,75.6617313 L56.6255002,117.279661 C54.2237504,117.898117 50.449805,118.944378 48.0480552,119.488434 C40.6079784,120.883448 41.8615978,119.411708 34.6540234,119.488434 L25.4701786,119.488434 C24.2309408,119.332657 9.19501062,117.972982 7.79999622,117.893931 C6.63748422,114.097167 1.25040361,109.985519 0.0111658171,105.335471 C-0.530564775,93.7103513 18.8043348,85.4268321 22.215145,78.2192577 C24.3843924,73.1832557 28.220682,68.2611799 33.7240138,63.4553553 C39.9248528,57.7985719 43.8378682,53.7297799 45.465385,51.2489793 C48.952921,45.9014241 50.4641866,39.1193291 49.9991818,30.9050193 C49.8434052,27.0292043 50.2316842,23.7346453 51.1616938,21.0236673 C51.6266986,19.6286529 52.2079546,18.5451917 52.9054618,17.7686337 Z" id="Path-Copy-2" fill="#15283C" transform="translate(35.324597, 68.930186) scale(-1, 1) translate(-35.324597, -68.930186) "></path>
                        <path d="M66.2927711,117.16341 C63.7352447,116.698405 61.1381929,116.117149 58.5039407,115.419642 C44.3980201,111.467101 30.8361551,104.917508 17.8160207,95.7731889 C17.9644597,95.7731889 17.2881504,95.897593 18.3847365,95.0151799 C25.9015391,83.3900599 24.7143669,67.9101013 28.2786287,56.3640321 C31.8428905,44.8179629 33.7424351,38.6543243 33.9749375,37.8800913 C34.2074399,36.7175793 34.4399423,35.6713185 34.6724447,34.7413089 C36.5324639,27.3012321 39.1667161,21.3328955 42.5775263,16.8386241 C45.2117785,13.8951437 49.3200959,11.2190411 54.9001535,8.81729131 C62.1077279,5.6389835 66.4857481,3.50926152 68.0365391,2.42347531 C69.7407817,1.49346571 71.0195449,0.835483918 71.8728287,0.44720491 C73.3445689,-0.327028082 74.5070809,-0.0968507056 75.3603647,1.14471211 C79.0036773,3.3139595 83.3816975,5.56225771 88.4967503,7.88728171 C94.5418127,10.5238589 99.1151349,12.4210785 102.214392,13.5835905 C105.546151,14.9786049 108.608208,16.3736193 111.398237,17.7686337 C110.700729,18.5451917 110.119473,19.6286529 109.654469,21.0236673 C108.724459,23.7346453 108.33618,27.0292043 108.491957,30.9050193 C108.956961,39.1193291 107.445696,45.9014241 103.95816,51.2489793 C102.330643,53.7297799 98.4176277,57.7985719 92.2167887,63.4553553 C86.7134569,68.2611799 82.8771673,73.1832557 80.7079199,78.2192577 C77.2971097,85.4268321 69.2496626,94.7288449 59.31842,104.143275 C60.5576578,108.793323 65.1302591,114.097167 66.2927711,117.893931 C61.7194489,117.428926 70.8660933,118.016694 66.2927711,117.16341 Z" id="Path-Copy-3" fill="#1A4D79" transform="translate(64.570984, 58.946966) scale(-1, 1) translate(-64.570984, -58.946966) "></path>
                        <path d="M175.460538,104.143275 C176.778826,106.156746 178.366818,108.521296 180.226837,111.234599 C186.348625,120.146416 189.643184,129.681339 190.108189,139.832394 C190.263966,141.771464 189.915212,145.2962 189.061928,150.411253 C188.364421,154.517245 187.976142,157.193348 187.899416,158.432586 C185.497666,160.75761 182.823889,162.889657 179.878083,164.826402 C178.559795,160.952912 175.111784,157.85133 169.531727,155.526306 C160.696635,151.806267 150.931535,153.859264 140.236424,161.687619 C137.290619,164.942653 134.191362,169.788003 130.936328,176.219019 C126.983787,183.891599 124.349535,188.734624 123.031247,190.750419 C120.792249,193.884552 117.325638,198.204446 112.626764,203.712428 C112.117584,204.291359 111.594454,204.89354 111.057373,205.514322 C108.83,208.104398 106.349199,210.931628 103.617296,214.000659 C103.152291,210.589849 101.796802,207.453392 99.5485042,204.584312 C100.269262,203.579902 100.985369,202.535966 101.699151,201.44553 C102.129281,200.822423 102.55476,200.185367 102.977915,199.527385 C104.005575,197.916143 105.033236,196.230501 106.058571,194.470458 C110.087838,187.030381 113.149895,181.450323 115.242416,177.730285 C122.991721,164.321872 131.401333,155.177552 140.468927,150.295002 C141.863941,149.209216 143.763486,148.242006 146.165235,147.388722 C149.03199,146.614489 151.203562,145.993707 152.675303,145.528703 C157.790355,143.901186 161.005864,141.266934 162.324152,137.623621 C166.741698,127.85852 171.119718,116.698405 175.460538,104.143275 Z" id="Path-Copy-4" fill="#1A4D79" transform="translate(144.846383, 159.071967) scale(-1, 1) translate(-144.846383, -159.071967) "></path>
                        <path d="M52.8515945,168.313938 C50.3707939,158.39306 48.7432771,152.657226 47.9690441,151.10876 C41.6914793,139.639417 33.0121647,130.804326 21.9287753,124.603487 C19.2945231,123.208472 16.7741971,122.00876 14.3724473,120.999699 C14.2957215,119.683736 14.1794703,118.402648 14.0236937,117.16341 C18.5970159,118.016694 23.1680131,118.674675 27.7413353,119.13968 C29.1363497,119.218731 30.4546383,119.332657 31.6938761,119.488434 L40.8777209,119.488434 C48.0852953,119.411708 55.4091209,118.674675 62.8491977,117.279661 C62.7724719,117.898117 62.6562207,118.521224 62.5004441,119.13968 C61.8029369,122.548165 60.1358947,130.804326 57.5016425,143.901186 C55.4091209,153.898789 53.8583299,162.036373 52.8515945,168.313938 Z" id="Path-Copy-5" fill="#15283C" transform="translate(38.436446, 142.738674) scale(-1, 1) translate(-38.436446, -142.738674) "></path>
                        <path d="M70.6380281,104.143275 C70.8705305,103.678271 71.0263071,103.250466 71.1030329,102.864512 L73.1955545,97.0519521 C73.2722803,96.8194497 73.3513311,96.5869473 73.4280569,96.3544449 C73.5047827,96.1219425 73.5443081,95.9289655 73.5443081,95.7731889 C86.5644425,104.917508 100.126308,111.467101 114.232228,115.419642 C113.225493,117.20061 112.139707,119.13968 110.977195,121.232202 C106.947928,127.198213 103.148839,132.043563 99.5845769,135.763602 C96.7178223,139.562691 92.6862307,145.375251 87.4944521,153.201282 C86.1761635,155.061301 84.7044233,156.805069 83.0769065,158.432586 C83.1536323,157.193348 83.5419113,154.517245 84.2394185,150.411253 C85.0927023,145.2962 85.4414559,141.771464 85.2856793,139.832394 C84.8206745,129.681339 81.5261155,120.146416 75.4043273,111.234599 C73.5443081,108.521296 71.9563167,106.156746 70.6380281,104.143275 Z" id="Path-Copy-6" fill="#1A4D79" transform="translate(92.435128, 127.102887) scale(-1, 1) translate(-92.435128, -127.102887) "></path>
                        <path d="M128.647377,211.675635 L128.763628,213.651906 C127.44534,214.814418 125.315618,217.371944 122.369812,221.324485 C119.889012,224.579519 117.680239,226.827817 115.743494,228.067055 L109.814683,236.204639 C111.674702,222.33122 112.604711,215.318948 112.604711,215.163171 C112.604711,214.698167 112.565186,214.309888 112.48846,214.000659 C115.220363,210.931628 117.701164,208.104398 119.928537,205.514322 C120.465617,204.89354 120.988748,204.291359 121.497928,203.712428 C126.196802,198.204446 129.663412,193.884552 131.902411,190.750419 C133.220699,188.734624 135.854951,183.891599 139.807492,176.219019 C143.062526,169.788003 146.161783,164.942653 149.107588,161.687619 C159.802699,153.859264 169.567799,151.806267 178.402891,155.526306 C183.982948,157.85133 187.430959,160.952912 188.749247,164.826402 C186.58,166.06564 184.254976,167.267677 181.774175,168.430189 C179.604928,165.872663 177.937886,163.935918 176.775374,162.617629 C174.759578,160.448382 172.746107,158.820865 170.730311,157.735079 C170.653586,157.735079 170.537334,157.735079 170.381558,157.735079 L169.916553,157.618827 C165.110728,157.230548 160.848959,159.748549 157.128921,165.175155 C156.275637,166.260942 154.687646,168.778943 152.362622,172.731483 C150.502603,176.065568 148.991337,178.348741 147.828825,179.590304 C145.348024,182.998789 141.279232,187.960391 135.622449,194.470458 C131.979136,199.432059 129.733163,204.235559 128.879879,208.885607 C128.879879,209.273886 128.840354,209.620314 128.763628,209.931867 L128.647377,211.675635 Z" id="Path-Copy-7" fill="#1A4D79" transform="translate(149.281965, 194.966589) scale(-1, 1) translate(-149.281965, -194.966589) "></path>
                        <path d="M80.6356313,120.999699 C83.0373811,122.00876 85.5577071,123.208472 88.1919593,124.603487 C99.2753487,130.804326 107.954663,139.639417 114.232228,151.10876 C115.006461,152.657226 116.633978,158.39306 119.114779,168.313938 C118.184769,175.83074 116.092247,181.994379 112.837214,186.797879 C109.58218,191.680429 103.809146,193.23122 95.5157849,191.447927 C87.1456985,189.587907 77.3410723,188.969451 66.1042313,189.587907 C54.9441161,190.131963 45.1394899,190.673694 36.6926777,191.215424 C30.2593363,191.524652 26.0370927,191.836206 24.0212969,192.145434 C25.2605347,190.517917 26.3858463,188.695098 27.3925817,186.681627 C29.3293267,182.882538 30.8801177,178.776546 32.0426297,174.359 C32.6634111,171.492246 32.9726393,169.553176 32.9726393,168.54644 L37.5064361,166.802672 C38.7456739,166.493444 40.4127161,166.06564 42.5052377,165.523909 C44.6744851,165.058904 50.2940681,163.859192 59.3616617,161.920122 C68.4292553,159.906651 76.3343369,160.448382 83.0769065,163.547639 C82.3793993,146.186684 81.5656409,132.006363 80.6356313,120.999699 Z" id="Path-Copy-8" fill="#15283C" transform="translate(71.568038, 156.581520) scale(-1, 1) translate(-71.568038, -156.581520) "></path>
                    </g>
                </g>
            </g>
        </g>
    </g>
</svg>