<?xml version="1.0" encoding="UTF-8"?>
<svg width="158px" height="80px" viewBox="0 0 158 80" version="1.1" xmlns="http://www.w3.org/2000/svg" xmlns:xlink="http://www.w3.org/1999/xlink">
    <title>CBF238E1-FCC3-4FEE-8F92-FDB2F9B17D06</title>
    <defs>
        <path d="M13,12 C15.7614237,12 18,14.2385763 18,17 L18,17 L18,19 C18,19.5522847 17.5522847,20 17,20 C16.4477153,20 16,19.5522847 16,19 L16,19 L16,17 C16,15.3431458 14.6568542,14 13,14 L13,14 L5,14 C3.34314575,14 2,15.3431458 2,17 L2,17 L2,19 C2,19.5522847 1.55228475,20 1,20 C0.44771525,20 0,19.5522847 0,19 L0,19 L0,17 C0,14.2385763 2.23857625,12 5,12 L5,12 Z M9,0 C11.7614237,0 14,2.23857625 14,5 C14,7.76142375 11.7614237,10 9,10 C6.23857625,10 4,7.76142375 4,5 C4,2.23857625 6.23857625,0 9,0 Z M9,2 C7.34314575,2 6,3.34314575 6,5 C6,6.65685425 7.34314575,8 9,8 C10.6568542,8 12,6.65685425 12,5 C12,3.34314575 10.6568542,2 9,2 Z" id="path-1"></path>
    </defs>
    <g id="Design" stroke="none" stroke-width="1" fill="none" fill-rule="evenodd">
        <g id="Styleguide" transform="translate(-380.000000, -11821.000000)">
            <g id="Group-8" transform="translate(380.000000, 11821.000000)">
                <g id="user-copy" transform="translate(38.573280, 15.045595)">
                    <mask id="mask-2" fill="white">
                        <use xlink:href="#path-1"></use>
                    </mask>
                    <use id="Combined-Shape" fill="#000000" fill-rule="nonzero" xlink:href="#path-1"></use>
                    <g id="COLOR/-black" mask="url(#mask-2)" fill="#FFFFFF">
                        <g transform="translate(-3.000000, -2.000000)" id="Rectangle">
                            <rect x="0" y="0" width="24" height="24"></rect>
                        </g>
                    </g>
                </g>
                <g id="Group-20">
                    <path d="M124.28474,57.158255 C124.28474,64.793495 78.89748,79.639795 78.89748,79.639795 C78.89748,79.639795 33.51022,64.369315 33.51022,56.734075 C33.51022,49.098835 33.51022,30.010735 33.51022,30.010735 L124.70892,30.010735 C124.28474,30.010735 124.28474,49.523015 124.28474,57.158255 Z" id="Path" fill="#FFFFFF" fill-rule="nonzero"></path>
                    <path d="M75.92822,55.885715 L1.27254,30.010735 C-0.42418,29.162375 -0.42418,26.617295 1.27254,26.193115 L75.92822,0.318135 C77.62494,-0.106045 79.74584,-0.106045 81.44256,0.318135 L156.09824,26.193115 C157.79496,27.041475 157.79496,29.586555 156.09824,30.010735 L81.44256,55.885715 C79.74584,56.734075 78.04912,56.734075 75.92822,55.885715 Z" id="Path" fill="#C0C0C0" fill-rule="nonzero"></path>
                    <polyline id="Path" stroke="#FFFFFF" stroke-width="8.4836" stroke-linecap="round" stroke-linejoin="round" points="78.89748 25.344755 145.06956 31.707455 145.06956 57.582435"></polyline>
                    <path d="M151.00808,57.582435 C151.00808,54.188995 148.463,51.643915 145.06956,51.643915 C141.67612,51.643915 139.13104,54.188995 139.13104,57.582435 C139.13104,59.703335 139.9794,61.400055 141.67612,62.672595 L139.13104,75.822175 C143.37284,77.518895 147.19046,77.518895 151.43226,75.822175 L148.88718,62.672595 C150.15972,61.400055 151.00808,59.703335 151.00808,57.582435 Z" id="Path" fill="#3C91A0" fill-rule="nonzero"></path>
                </g>
            </g>
        </g>
    </g>
</svg>