<?xml version="1.0" encoding="UTF-8"?>
<svg width="96px" height="102px" viewBox="0 0 96 102" version="1.1" xmlns="http://www.w3.org/2000/svg" xmlns:xlink="http://www.w3.org/1999/xlink">
    <title>DC4B02D3-CEF0-476C-AFE0-3ED730315F88</title>
    <g id="Design" stroke="none" stroke-width="1" fill="none" fill-rule="evenodd">
        <g id="Styleguide" transform="translate(-955.000000, -11810.000000)">
            <g id="Group-50" transform="translate(955.000000, 11810.000000)">
                <g id="iconfinder__leader_manager_skill_4865015-copy" transform="translate(0.000000, 2.000000)" fill-rule="nonzero">
                    <path d="M23.1,25.67 C23.1,11.6 34.65,0.26 48.72,0.47 C62.58,0.68 73.5,12.65 73.5,26.51 L73.5,27.14 C73.5,41 62.16,61.16 48.3,61.16 C34.44,61.16 23.1,41 23.1,27.14 L23.1,25.67 Z" id="Path" fill="#D9DCE1"></path>
                    <path d="M78.33,68.3 L18.27,68.3 C10.92,68.3 4.83,73.55 3.57,80.69 L0.42,99.8 L95.97,99.8 L92.82,80.69 C91.77,73.55 85.47,68.3 78.33,68.3 Z" id="Path" fill="#FFFFFF"></path>
                    <path d="M48.51,98.96 L48.51,98.96 L48.3,98.96 C41.58,91.82 38.01,82.58 38.01,72.92 L38.01,68.3 L59.01,68.3 L59.01,72.92 C58.8,82.58 55.02,92.03 48.51,98.96 Z" id="Path" fill="#3C91A0"></path>
                    <path d="M43.89,93.71 C45.15,95.6 46.62,97.49 48.3,99.17 C49.98,97.49 51.45,95.81 52.71,93.71 L50.82,73.55 L48.3,71.03 L45.78,73.55 L43.89,93.71 Z" id="Path" fill="#54B6C7"></path>
                </g>
                <text id="+" font-family="AlmoniDLAAA-Black, Almoni DL AAA" font-size="53" font-weight="800" fill="#FFFFFF">
                    <tspan x="36.1816406" y="45">+</tspan>
                </text>
            </g>
        </g>
    </g>
</svg>